<svg width="24" height="24" viewBox="0 0 24 24" fill="none" xmlns="http://www.w3.org/2000/svg">
<path fill-rule="evenodd" clip-rule="evenodd" d="M24 12C24 18.6274 18.6274 24 12 24C5.37258 24 0 18.6274 0 12C0 5.37258 5.37258 0 12 0C18.6274 0 24 5.37258 24 12ZM8.39988 6.15H15.5999C16.8499 6.15 17.8499 7.15 17.8499 8.4V15.6C17.8499 16.85 16.8499 17.85 15.5999 17.85H8.39988C7.14988 17.85 6.14988 16.85 6.14988 15.6V8.40001C6.14988 7.15 7.14988 6.15 8.39988 6.15ZM16.4999 7.5H16.2499H14.4999V9.49999H16.4999V7.5ZM11.9999 9.95C11.3499 9.95 10.6999 10.3 10.3499 10.8C10.0999 11.15 9.94988 11.55 9.94989 12C9.94989 13.15 10.8999 14.05 11.9999 14.05C13.0999 14.05 14.0499 13.15 14.0499 12C14.0499 11.55 13.8999 11.15 13.6499 10.8C13.2999 10.3 12.6499 9.95 11.9999 9.95ZM15.5999 16.7C16.1999 16.7 16.6999 16.2 16.6999 15.6L16.6999 10.8H14.9499C15.0999 11.15 15.1999 11.6 15.1999 12C15.1999 13.75 13.7499 15.2 11.9999 15.2C10.2499 15.2 8.79988 13.75 8.79988 12C8.79988 11.6 8.89987 11.15 9.04988 10.8H7.29988V15.6C7.29988 16.2 7.79989 16.7 8.39988 16.7H15.5999Z" fill="#F7F8FD"/>
</svg>
