<svg width="24" height="24" viewBox="0 0 24 24" fill="none" xmlns="http://www.w3.org/2000/svg">
<path d="M11.9997 0C5.37271 0 0 5.37276 0 11.9998C0 18.627 5.3725 24 11.9997 24C18.6271 24 24 18.627 24 11.9998C23.9998 5.37276 18.6271 0 11.9997 0ZM7.02038 5.41218C7.83664 5.41218 8.49873 6.01598 8.49873 6.76087C8.49873 7.50576 7.83664 8.10955 7.02038 8.10955C6.2037 8.10955 5.54202 7.50576 5.54202 6.76087C5.54202 6.01598 6.2037 5.41218 7.02038 5.41218ZM8.50994 16.9476H5.58891V9.32545H8.50994V16.9476ZM18.4358 16.9476H15.5006V12.7563C15.5006 12.2778 15.4118 11.9392 15.2349 11.7404C15.0577 11.5421 14.8089 11.4425 14.4887 11.4425C14.1345 11.4425 13.8472 11.5765 13.6272 11.8446C13.4071 12.1127 13.2973 12.5934 13.2973 13.2873V16.9476H10.3761V9.32545H13.0961V10.5669C13.5025 10.06 13.9142 9.69748 14.3304 9.47961C14.7466 9.26196 15.2535 9.15323 15.8517 9.15323C16.6605 9.15323 17.2931 9.39351 17.7502 9.87447C18.2069 10.3552 18.4356 11.098 18.4356 12.1029V16.9476H18.4358Z" fill="#F7F8FD"/>
</svg>
