<svg width="24" height="24" viewBox="0 0 24 24" fill="none" xmlns="http://www.w3.org/2000/svg">
<path fill-rule="evenodd" clip-rule="evenodd" d="M24 12C24 18.6274 18.6274 24 12 24C5.37258 24 0 18.6274 0 12C0 5.37258 5.37258 0 12 0C18.6274 0 24 5.37258 24 12ZM17.8812 7.72379C18.5204 7.64747 19.1283 7.47768 19.6944 7.22651C19.2699 7.86125 18.7358 8.41533 18.1172 8.86283C18.1238 8.99828 18.1268 9.13421 18.1268 9.27116C18.1268 13.4427 14.9513 18.2529 9.14498 18.2529C7.36218 18.2529 5.70316 17.7299 4.30591 16.834C4.553 16.8638 4.80469 16.879 5.05936 16.879C6.53795 16.879 7.89931 16.3741 8.97971 15.5272C7.59872 15.5014 6.43286 14.5888 6.03114 13.335C6.22416 13.3713 6.42174 13.3906 6.62539 13.3906C6.91343 13.3906 7.19186 13.3526 7.45716 13.2799C6.01292 12.9899 4.92494 11.7144 4.92494 10.1847V10.1449C5.36331 10.3887 5.85367 10.524 6.35504 10.5395C5.50811 9.97356 4.95073 9.00736 4.95073 7.91229C4.95073 7.33372 5.10634 6.79146 5.37821 6.32507C6.93515 8.23472 9.2612 9.49148 11.8849 9.62333C11.8314 9.39189 11.8035 9.15083 11.8035 8.90374C11.8035 7.15985 13.217 5.74695 14.9599 5.74695C15.8679 5.74695 16.6886 6.12997 17.2642 6.74346C17.9714 6.60455 18.6496 6.34543 19.2693 5.97737C19.0333 6.71412 18.5336 7.33315 17.8812 7.72379Z" fill="#F7F8FD"/>
</svg>
