<svg width="24" height="24" viewBox="0 0 24 24" fill="none" xmlns="http://www.w3.org/2000/svg">
<circle cx="12" cy="12" r="12" fill="#F7F8FD"/>
<path d="M16.5162 8.18433C16.5162 8.18433 15.2489 8 11.9541 8C8.64766 8 7.48401 8.18433 7.48401 8.18433C7.28914 8.1843 7.09616 8.22266 6.91612 8.29722C6.73607 8.37178 6.57247 8.48108 6.43467 8.61886C6.29686 8.75665 6.18755 8.92024 6.11297 9.10027C6.03839 9.28031 6 9.47328 6 9.66815V14.5644C6.00002 14.7593 6.03843 14.9522 6.11302 15.1322C6.18761 15.3122 6.29693 15.4758 6.43473 15.6136C6.57254 15.7513 6.73612 15.8606 6.91616 15.9352C7.0962 16.0097 7.28915 16.0481 7.48401 16.048C7.48401 16.048 8.64766 16.2324 11.9578 16.2324C15.2487 16.2324 16.516 16.048 16.516 16.048C16.9095 16.048 17.2869 15.8917 17.5652 15.6135C17.8435 15.3353 17.9999 14.9579 18 14.5644V9.66815C18 9.27462 17.8437 8.8972 17.5654 8.61893C17.2871 8.34066 16.9097 8.18433 16.5162 8.18433ZM10.1835 14.4658V9.79312L14.2302 12.1293L10.1835 14.4658Z" fill="#363648"/>
</svg>
